<svg width="284" height="31" viewBox="0 0 284 31" fill="none" xmlns="http://www.w3.org/2000/svg">
<path d="M133.168 30H139.216L133.168 24.048L139.344 17.392H133.52L130.032 20.976L127.12 18.128C129.104 16.976 131.472 15.312 131.472 12.464C131.472 9.2 128.976 6.896 124.4 6.896C120.304 6.896 117.68 9.328 117.68 12.432C117.68 14.384 118.672 15.92 120.112 17.392C117.744 18.864 115.344 20.752 115.344 24.144C115.344 27.92 118.416 30.384 123.088 30.384C126.288 30.384 128.368 29.008 130.224 27.184L133.168 30ZM124.24 15.28C123.28 14.32 122.48 13.52 122.48 12.496C122.48 11.408 123.376 10.64 124.56 10.64C125.808 10.64 126.736 11.408 126.736 12.656C126.736 13.904 125.68 14.736 124.496 15.536L124.24 15.28ZM120.56 23.44C120.56 22 121.616 21.168 122.992 20.208L127.024 24.08C125.808 25.232 124.688 25.872 123.28 25.872C121.552 25.872 120.56 24.784 120.56 23.44ZM167.911 30H173.735L163.815 7.248H158.247L148.295 30H153.767L155.463 26.064H166.215L167.911 30ZM157.415 21.52L160.839 13.584L164.263 21.52H157.415ZM182.403 30.032H188.003L197.507 7.28H191.843L185.347 23.312L178.755 7.28H172.547L182.403 30.032ZM200.972 30H206.412V7.28H200.972V30ZM211.971 30H230.819V25.2H217.411V7.28H211.971V30ZM244.666 30.384C251.45 30.384 256.698 25.552 256.698 18.64C256.698 11.664 251.45 6.896 244.666 6.896C237.85 6.896 232.602 11.664 232.602 18.64C232.602 25.584 237.818 30.384 244.666 30.384ZM244.666 25.52C240.666 25.52 238.138 22.512 238.138 18.64C238.138 14.8 240.666 11.76 244.666 11.76C248.666 11.76 251.162 14.832 251.162 18.64C251.162 22.48 248.666 25.52 244.666 25.52ZM283.239 7.28H278.055V21.2L267.303 7.28H261.127V30H266.439V14.352L278.823 30.064H283.239V7.28Z" fill="#0D2C75"/>
<path d="M32.752 30H46.096C51.344 30 54.064 27.44 54.064 23.504C54.064 20.496 52.272 18.672 50.288 18C51.888 17.36 53.488 15.824 53.488 13.456C53.488 9.71203 50.832 7.28003 45.872 7.28003H32.752V30ZM45.008 11.664C46.896 11.664 47.952 12.336 47.952 13.904C47.952 15.44 46.864 16.144 45.008 16.144H38.096V11.664H45.008ZM45.136 20.528C47.376 20.528 48.528 21.36 48.528 23.056C48.528 24.72 47.376 25.616 45.136 25.616H38.096V20.528H45.136ZM65.1343 30H70.5423V12.016H79.1503V7.28003H56.5263V12.016H65.1343V30ZM95.8333 15.984H88.4733V12.016H102.329V7.28003H83.0333V30H95.8333C101.177 30 104.281 27.536 104.281 22.864C104.281 18.448 101.177 15.984 95.8333 15.984ZM95.5133 20.4C97.6573 20.4 98.7133 21.328 98.7133 22.832C98.7133 24.432 97.6573 25.264 95.5133 25.264H88.4733V20.4H95.5133Z" fill="#0D2C75"/>
<path d="M5.46667 0L4 4H24.5333L26 0H5.46667Z" fill="#009FDF"/>
<path d="M3.46667 6L2 10H22.5333L24 6H3.46667Z" fill="#009FDF"/>
<path d="M1.46667 12L0 16H20.5333L22 12H1.46667Z" fill="#009FDF"/>
</svg>
