<svg width="22" height="22" viewBox="0 0 22 22" fill="none" xmlns="http://www.w3.org/2000/svg">
<g clip-path="url(#clip0_13_4892)">
<path d="M18.6668 9.29557C18.6668 15.2585 11.0002 20.3696 11.0002 20.3696C11.0002 20.3696 3.3335 15.2585 3.3335 9.29557C3.3335 7.26225 4.14123 5.3122 5.57901 3.87442C7.01679 2.43664 8.96684 1.62891 11.0002 1.62891C13.0335 1.62891 14.9835 2.43664 16.4213 3.87442C17.8591 5.3122 18.6668 7.26225 18.6668 9.29557Z" stroke="#ADAEAE" stroke-width="1.5" stroke-linecap="round" stroke-linejoin="round"/>
<path d="M10.9999 11.8513C12.4113 11.8513 13.5554 10.7072 13.5554 9.29579C13.5554 7.8844 12.4113 6.74023 10.9999 6.74023C9.5885 6.74023 8.44434 7.8844 8.44434 9.29579C8.44434 10.7072 9.5885 11.8513 10.9999 11.8513Z" stroke="#ADAEAE" stroke-width="1.5" stroke-linecap="round" stroke-linejoin="round"/>
</g>
<defs>
<clipPath id="clip0_13_4892">
<rect width="20.4444" height="20.4444" fill="white" transform="translate(0.777832 0.777344)"/>
</clipPath>
</defs>
</svg>
