<?xml version="1.0" standalone="no"?>
<!DOCTYPE svg PUBLIC "-//W3C//DTD SVG 20010904//EN"
 "http://www.w3.org/TR/2001/REC-SVG-20010904/DTD/svg10.dtd">
<svg version="1.0" xmlns="http://www.w3.org/2000/svg"
 width="512.000000pt" height="512.000000pt" viewBox="0 0 512.000000 512.000000"
 preserveAspectRatio="xMidYMid meet">
<metadata>
Created by potrace 1.14, written by Peter Selinger 2001-2017
</metadata>
<g transform="translate(0.000000,512.000000) scale(0.100000,-0.100000)"
fill="#000000" stroke="none">
<path d="M1041 4032 c-18 -53 -39 -110 -47 -127 -13 -30 -204 -554 -204 -559
0 -2 909 -3 2021 -3 1851 0 2021 1 2026 16 3 9 16 43 29 76 12 33 59 161 104
285 45 124 97 267 116 318 l34 92 -2023 0 -2022 0 -34 -98z"/>
<path d="M620 2778 c-34 -95 -72 -200 -85 -233 -13 -33 -35 -94 -50 -135 -15
-41 -29 -82 -32 -90 -29 -77 -53 -146 -53 -152 0 -3 909 -6 2020 -6 1111 0
2020 1 2020 2 0 2 63 175 140 385 77 210 140 386 140 392 0 5 -757 9 -2019 9
l-2018 0 -63 -172z"/>
<path d="M284 1756 c-2 -6 -58 -159 -125 -341 -67 -181 -129 -354 -140 -382
l-18 -53 2022 0 2022 0 138 378 c77 207 141 384 144 394 4 15 -140 16 -2017
16 -1513 0 -2022 -3 -2026 -12z"/>
</g>
</svg>
